# MagicaVoxel @ ephtracy

# material
mtllib map.mtl
usemtl palette

# normals
vn -1 0 0
vn 1 0 0
vn 0 0 1
vn 0 0 -1
vn 0 -1 0
vn 0 1 0

# texcoords
vt 0.916016 0.5
vt 0.958984 0.5

# verts
v -35 0 25
v -35 0 -25
v -35 1 25
v -35 1 -25
v -35 2 25
v -35 2 -25
v -18 0 21
v -18 0 3
v -18 1 21
v -18 1 3
v -17 1 22
v -17 1 2
v -17 2 22
v -17 2 2
v -3 0 21
v -3 0 3
v -3 0 -3
v -3 0 -21
v -3 1 21
v -3 1 3
v -3 1 -3
v -3 1 -21
v -2 1 22
v -2 1 2
v -2 1 -2
v -2 1 -22
v -2 2 22
v -2 2 2
v -2 2 -2
v -2 2 -22
v 7 0 -3
v 7 0 -21
v 7 1 -3
v 7 1 -21
v 8 1 -2
v 8 1 -22
v 8 2 -2
v 8 2 -22
v 31 0 21
v 31 0 3
v 31 0 -3
v 31 0 -21
v 31 1 21
v 31 1 3
v 31 1 -3
v 31 1 -21
v 32 1 22
v 32 1 2
v 32 1 -2
v 32 1 -22
v 32 2 22
v 32 2 2
v 32 2 -2
v 32 2 -22
v -31 1 22
v -31 1 2
v -31 1 -2
v -31 1 -22
v -31 2 22
v -31 2 2
v -31 2 -2
v -31 2 -22
v -30 0 21
v -30 0 3
v -30 0 -3
v -30 0 -21
v -30 1 21
v -30 1 3
v -30 1 -3
v -30 1 -21
v -9 1 22
v -9 1 2
v -9 2 22
v -9 2 2
v -8 0 21
v -8 0 3
v -8 1 21
v -8 1 3
v 2 1 22
v 2 1 2
v 2 1 -2
v 2 1 -22
v 2 2 22
v 2 2 2
v 2 2 -2
v 2 2 -22
v 3 0 21
v 3 0 3
v 3 0 -3
v 3 0 -21
v 3 1 21
v 3 1 3
v 3 1 -3
v 3 1 -21
v 16 1 -2
v 16 1 -22
v 16 2 -2
v 16 2 -22
v 17 0 -3
v 17 0 -21
v 17 1 -3
v 17 1 -21
v 35 0 25
v 35 0 -25
v 35 1 25
v 35 1 -25
v 35 2 25
v 35 2 -25
v -35 0 25
v -35 1 25
v -35 2 25
v 35 0 25
v 35 1 25
v 35 2 25
v -30 0 3
v -30 1 3
v -18 0 3
v -18 1 3
v -8 0 3
v -8 1 3
v -3 0 3
v -3 1 3
v 3 0 3
v 3 1 3
v 31 0 3
v 31 1 3
v -31 1 2
v -31 2 2
v -17 1 2
v -17 2 2
v -9 1 2
v -9 2 2
v -2 1 2
v -2 2 2
v 2 1 2
v 2 2 2
v 32 1 2
v 32 2 2
v -30 0 -21
v -30 1 -21
v -3 0 -21
v -3 1 -21
v 3 0 -21
v 3 1 -21
v 7 0 -21
v 7 1 -21
v 17 0 -21
v 17 1 -21
v 31 0 -21
v 31 1 -21
v -31 1 -22
v -31 2 -22
v -2 1 -22
v -2 2 -22
v 2 1 -22
v 2 2 -22
v 8 1 -22
v 8 2 -22
v 16 1 -22
v 16 2 -22
v 32 1 -22
v 32 2 -22
v -31 1 22
v -31 2 22
v -17 1 22
v -17 2 22
v -9 1 22
v -9 2 22
v -2 1 22
v -2 2 22
v 2 1 22
v 2 2 22
v 32 1 22
v 32 2 22
v -30 0 21
v -30 1 21
v -18 0 21
v -18 1 21
v -8 0 21
v -8 1 21
v -3 0 21
v -3 1 21
v 3 0 21
v 3 1 21
v 31 0 21
v 31 1 21
v -31 1 -2
v -31 2 -2
v -2 1 -2
v -2 2 -2
v 2 1 -2
v 2 2 -2
v 8 1 -2
v 8 2 -2
v 16 1 -2
v 16 2 -2
v 32 1 -2
v 32 2 -2
v -30 0 -3
v -30 1 -3
v -3 0 -3
v -3 1 -3
v 3 0 -3
v 3 1 -3
v 7 0 -3
v 7 1 -3
v 17 0 -3
v 17 1 -3
v 31 0 -3
v 31 1 -3
v -35 0 -25
v -35 1 -25
v -35 2 -25
v 35 0 -25
v 35 1 -25
v 35 2 -25
v -35 0 25
v 35 0 25
v -34 0 24
v 34 0 24
v -31 0 22
v -17 0 22
v -9 0 22
v -2 0 22
v 2 0 22
v 32 0 22
v -30 0 21
v -18 0 21
v -8 0 21
v -3 0 21
v 3 0 21
v 31 0 21
v -30 0 3
v -18 0 3
v -8 0 3
v -3 0 3
v 3 0 3
v 31 0 3
v -31 0 2
v -17 0 2
v -9 0 2
v -2 0 2
v 2 0 2
v 32 0 2
v -31 0 -2
v -2 0 -2
v 2 0 -2
v 8 0 -2
v 16 0 -2
v 32 0 -2
v -30 0 -3
v -3 0 -3
v 3 0 -3
v 7 0 -3
v 17 0 -3
v 31 0 -3
v -30 0 -21
v -3 0 -21
v 3 0 -21
v 7 0 -21
v 17 0 -21
v 31 0 -21
v -31 0 -22
v -2 0 -22
v 2 0 -22
v 8 0 -22
v 16 0 -22
v 32 0 -22
v -34 0 -24
v 34 0 -24
v -35 0 -25
v 35 0 -25
v -31 1 22
v -17 1 22
v -9 1 22
v -2 1 22
v 2 1 22
v 32 1 22
v -30 1 21
v -18 1 21
v -8 1 21
v -3 1 21
v 3 1 21
v 31 1 21
v -30 1 3
v -18 1 3
v -8 1 3
v -3 1 3
v 3 1 3
v 31 1 3
v -31 1 2
v -17 1 2
v -9 1 2
v -2 1 2
v 2 1 2
v 32 1 2
v -31 1 -2
v -2 1 -2
v 2 1 -2
v 8 1 -2
v 16 1 -2
v 32 1 -2
v -30 1 -3
v -3 1 -3
v 3 1 -3
v 7 1 -3
v 17 1 -3
v 31 1 -3
v -30 1 -21
v -3 1 -21
v 3 1 -21
v 7 1 -21
v 17 1 -21
v 31 1 -21
v -31 1 -22
v -2 1 -22
v 2 1 -22
v 8 1 -22
v 16 1 -22
v 32 1 -22
v -35 2 25
v 35 2 25
v -31 2 22
v -17 2 22
v -9 2 22
v -2 2 22
v 2 2 22
v 32 2 22
v -31 2 2
v -17 2 2
v -9 2 2
v -2 2 2
v 2 2 2
v 32 2 2
v -31 2 -2
v -2 2 -2
v 2 2 -2
v 8 2 -2
v 16 2 -2
v 32 2 -2
v -31 2 -22
v -2 2 -22
v 2 2 -22
v 8 2 -22
v 16 2 -22
v 32 2 -22
v -35 2 -25
v 35 2 -25

# faces
f 3/1/1 2/1/1 1/1/1
f 4/1/1 2/1/1 3/1/1
f 5/2/1 4/2/1 3/2/1
f 6/2/1 4/2/1 5/2/1
f 9/1/1 8/1/1 7/1/1
f 10/1/1 8/1/1 9/1/1
f 13/2/1 12/2/1 11/2/1
f 14/2/1 12/2/1 13/2/1
f 19/1/1 16/1/1 15/1/1
f 20/1/1 16/1/1 19/1/1
f 21/1/1 18/1/1 17/1/1
f 22/1/1 18/1/1 21/1/1
f 27/2/1 24/2/1 23/2/1
f 28/2/1 24/2/1 27/2/1
f 29/2/1 26/2/1 25/2/1
f 30/2/1 26/2/1 29/2/1
f 33/1/1 32/1/1 31/1/1
f 34/1/1 32/1/1 33/1/1
f 37/2/1 36/2/1 35/2/1
f 38/2/1 36/2/1 37/2/1
f 43/1/1 40/1/1 39/1/1
f 44/1/1 40/1/1 43/1/1
f 45/1/1 42/1/1 41/1/1
f 46/1/1 42/1/1 45/1/1
f 51/2/1 48/2/1 47/2/1
f 52/2/1 48/2/1 51/2/1
f 53/2/1 50/2/1 49/2/1
f 54/2/1 50/2/1 53/2/1
f 55/2/2 56/2/2 59/2/2
f 59/2/2 56/2/2 60/2/2
f 57/2/2 58/2/2 61/2/2
f 61/2/2 58/2/2 62/2/2
f 63/1/2 64/1/2 67/1/2
f 67/1/2 64/1/2 68/1/2
f 65/1/2 66/1/2 69/1/2
f 69/1/2 66/1/2 70/1/2
f 71/2/2 72/2/2 73/2/2
f 73/2/2 72/2/2 74/2/2
f 75/1/2 76/1/2 77/1/2
f 77/1/2 76/1/2 78/1/2
f 79/2/2 80/2/2 83/2/2
f 83/2/2 80/2/2 84/2/2
f 81/2/2 82/2/2 85/2/2
f 85/2/2 82/2/2 86/2/2
f 87/1/2 88/1/2 91/1/2
f 91/1/2 88/1/2 92/1/2
f 89/1/2 90/1/2 93/1/2
f 93/1/2 90/1/2 94/1/2
f 95/2/2 96/2/2 97/2/2
f 97/2/2 96/2/2 98/2/2
f 99/1/2 100/1/2 101/1/2
f 101/1/2 100/1/2 102/1/2
f 103/1/2 104/1/2 105/1/2
f 105/1/2 104/1/2 106/1/2
f 105/2/2 106/2/2 107/2/2
f 107/2/2 106/2/2 108/2/2
f 112/1/3 110/1/3 109/1/3
f 113/2/3 111/2/3 110/2/3
f 113/1/3 110/1/3 112/1/3
f 114/2/3 111/2/3 113/2/3
f 117/1/3 116/1/3 115/1/3
f 118/1/3 116/1/3 117/1/3
f 121/1/3 120/1/3 119/1/3
f 122/1/3 120/1/3 121/1/3
f 125/1/3 124/1/3 123/1/3
f 126/1/3 124/1/3 125/1/3
f 129/2/3 128/2/3 127/2/3
f 130/2/3 128/2/3 129/2/3
f 133/2/3 132/2/3 131/2/3
f 134/2/3 132/2/3 133/2/3
f 137/2/3 136/2/3 135/2/3
f 138/2/3 136/2/3 137/2/3
f 141/1/3 140/1/3 139/1/3
f 142/1/3 140/1/3 141/1/3
f 145/1/3 144/1/3 143/1/3
f 146/1/3 144/1/3 145/1/3
f 149/1/3 148/1/3 147/1/3
f 150/1/3 148/1/3 149/1/3
f 153/2/3 152/2/3 151/2/3
f 154/2/3 152/2/3 153/2/3
f 157/2/3 156/2/3 155/2/3
f 158/2/3 156/2/3 157/2/3
f 161/2/3 160/2/3 159/2/3
f 162/2/3 160/2/3 161/2/3
f 163/2/4 164/2/4 165/2/4
f 165/2/4 164/2/4 166/2/4
f 167/2/4 168/2/4 169/2/4
f 169/2/4 168/2/4 170/2/4
f 171/2/4 172/2/4 173/2/4
f 173/2/4 172/2/4 174/2/4
f 175/1/4 176/1/4 177/1/4
f 177/1/4 176/1/4 178/1/4
f 179/1/4 180/1/4 181/1/4
f 181/1/4 180/1/4 182/1/4
f 183/1/4 184/1/4 185/1/4
f 185/1/4 184/1/4 186/1/4
f 187/2/4 188/2/4 189/2/4
f 189/2/4 188/2/4 190/2/4
f 191/2/4 192/2/4 193/2/4
f 193/2/4 192/2/4 194/2/4
f 195/2/4 196/2/4 197/2/4
f 197/2/4 196/2/4 198/2/4
f 199/1/4 200/1/4 201/1/4
f 201/1/4 200/1/4 202/1/4
f 203/1/4 204/1/4 205/1/4
f 205/1/4 204/1/4 206/1/4
f 207/1/4 208/1/4 209/1/4
f 209/1/4 208/1/4 210/1/4
f 211/1/4 212/1/4 214/1/4
f 212/2/4 213/2/4 215/2/4
f 214/1/4 212/1/4 215/1/4
f 215/2/4 213/2/4 216/2/4
f 219/1/5 218/1/5 217/1/5
f 220/1/5 218/1/5 219/1/5
f 221/2/5 220/2/5 219/2/5
f 222/2/5 220/2/5 221/2/5
f 223/2/5 220/2/5 222/2/5
f 224/2/5 220/2/5 223/2/5
f 225/2/5 220/2/5 224/2/5
f 226/2/5 220/2/5 225/2/5
f 227/1/5 222/1/5 221/1/5
f 228/1/5 222/1/5 227/1/5
f 229/1/5 224/1/5 223/1/5
f 230/1/5 224/1/5 229/1/5
f 231/1/5 226/1/5 225/1/5
f 232/1/5 226/1/5 231/1/5
f 233/1/5 227/1/5 221/1/5
f 234/1/5 222/1/5 228/1/5
f 235/1/5 229/1/5 223/1/5
f 236/1/5 224/1/5 230/1/5
f 237/1/5 231/1/5 225/1/5
f 238/1/5 226/1/5 232/1/5
f 239/2/5 221/2/5 219/2/5
f 239/1/5 233/1/5 221/1/5
f 239/1/5 234/1/5 233/1/5
f 240/2/5 223/2/5 222/2/5
f 240/1/5 234/1/5 239/1/5
f 240/1/5 222/1/5 234/1/5
f 241/1/5 235/1/5 223/1/5
f 241/2/5 223/2/5 240/2/5
f 241/1/5 236/1/5 235/1/5
f 242/2/5 225/2/5 224/2/5
f 242/1/5 236/1/5 241/1/5
f 242/1/5 224/1/5 236/1/5
f 243/1/5 238/1/5 237/1/5
f 243/2/5 225/2/5 242/2/5
f 243/1/5 237/1/5 225/1/5
f 244/2/5 220/2/5 226/2/5
f 244/1/5 238/1/5 243/1/5
f 244/1/5 226/1/5 238/1/5
f 245/2/5 242/2/5 241/2/5
f 245/2/5 243/2/5 242/2/5
f 245/2/5 244/2/5 243/2/5
f 245/2/5 239/2/5 219/2/5
f 245/2/5 241/2/5 240/2/5
f 245/2/5 240/2/5 239/2/5
f 246/2/5 244/2/5 245/2/5
f 247/2/5 244/2/5 246/2/5
f 248/2/5 244/2/5 247/2/5
f 249/2/5 244/2/5 248/2/5
f 250/2/5 220/2/5 244/2/5
f 250/2/5 244/2/5 249/2/5
f 251/1/5 246/1/5 245/1/5
f 252/1/5 246/1/5 251/1/5
f 253/1/5 248/1/5 247/1/5
f 254/1/5 248/1/5 253/1/5
f 255/1/5 250/1/5 249/1/5
f 256/1/5 250/1/5 255/1/5
f 257/1/5 251/1/5 245/1/5
f 258/1/5 246/1/5 252/1/5
f 259/1/5 253/1/5 247/1/5
f 260/1/5 248/1/5 254/1/5
f 261/1/5 255/1/5 249/1/5
f 262/1/5 250/1/5 256/1/5
f 263/2/5 245/2/5 219/2/5
f 263/1/5 257/1/5 245/1/5
f 263/1/5 258/1/5 257/1/5
f 264/2/5 247/2/5 246/2/5
f 264/1/5 258/1/5 263/1/5
f 264/1/5 246/1/5 258/1/5
f 265/1/5 259/1/5 247/1/5
f 265/2/5 247/2/5 264/2/5
f 265/1/5 260/1/5 259/1/5
f 266/2/5 249/2/5 248/2/5
f 266/1/5 260/1/5 265/1/5
f 266/1/5 248/1/5 260/1/5
f 267/1/5 262/1/5 261/1/5
f 267/2/5 249/2/5 266/2/5
f 267/1/5 261/1/5 249/1/5
f 268/2/5 220/2/5 250/2/5
f 268/1/5 262/1/5 267/1/5
f 268/1/5 250/1/5 262/1/5
f 269/1/5 219/1/5 217/1/5
f 269/2/5 265/2/5 264/2/5
f 269/2/5 268/2/5 267/2/5
f 269/2/5 266/2/5 265/2/5
f 269/2/5 267/2/5 266/2/5
f 269/2/5 264/2/5 263/2/5
f 269/2/5 263/2/5 219/2/5
f 270/2/5 220/2/5 268/2/5
f 270/2/5 268/2/5 269/2/5
f 270/1/5 218/1/5 220/1/5
f 271/1/5 269/1/5 217/1/5
f 271/1/5 270/1/5 269/1/5
f 272/1/5 218/1/5 270/1/5
f 272/1/5 270/1/5 271/1/5
f 273/1/6 274/1/6 279/1/6
f 279/1/6 274/1/6 280/1/6
f 275/1/6 276/1/6 281/1/6
f 281/1/6 276/1/6 282/1/6
f 277/1/6 278/1/6 283/1/6
f 283/1/6 278/1/6 284/1/6
f 273/1/6 279/1/6 285/1/6
f 280/1/6 274/1/6 286/1/6
f 275/1/6 281/1/6 287/1/6
f 282/1/6 276/1/6 288/1/6
f 277/1/6 283/1/6 289/1/6
f 284/1/6 278/1/6 290/1/6
f 273/1/6 285/1/6 291/1/6
f 285/1/6 286/1/6 291/1/6
f 286/1/6 274/1/6 292/1/6
f 291/1/6 286/1/6 292/1/6
f 275/1/6 287/1/6 293/1/6
f 287/1/6 288/1/6 293/1/6
f 288/1/6 276/1/6 294/1/6
f 293/1/6 288/1/6 294/1/6
f 289/1/6 290/1/6 295/1/6
f 277/1/6 289/1/6 295/1/6
f 290/1/6 278/1/6 296/1/6
f 295/1/6 290/1/6 296/1/6
f 297/1/6 298/1/6 303/1/6
f 303/1/6 298/1/6 304/1/6
f 299/1/6 300/1/6 305/1/6
f 305/1/6 300/1/6 306/1/6
f 301/1/6 302/1/6 307/1/6
f 307/1/6 302/1/6 308/1/6
f 297/1/6 303/1/6 309/1/6
f 304/1/6 298/1/6 310/1/6
f 299/1/6 305/1/6 311/1/6
f 306/1/6 300/1/6 312/1/6
f 301/1/6 307/1/6 313/1/6
f 308/1/6 302/1/6 314/1/6
f 297/1/6 309/1/6 315/1/6
f 309/1/6 310/1/6 315/1/6
f 310/1/6 298/1/6 316/1/6
f 315/1/6 310/1/6 316/1/6
f 299/1/6 311/1/6 317/1/6
f 311/1/6 312/1/6 317/1/6
f 312/1/6 300/1/6 318/1/6
f 317/1/6 312/1/6 318/1/6
f 313/1/6 314/1/6 319/1/6
f 301/1/6 313/1/6 319/1/6
f 314/1/6 302/1/6 320/1/6
f 319/1/6 314/1/6 320/1/6
f 321/2/6 322/2/6 323/2/6
f 323/2/6 322/2/6 324/2/6
f 324/2/6 322/2/6 325/2/6
f 325/2/6 322/2/6 326/2/6
f 326/2/6 322/2/6 327/2/6
f 327/2/6 322/2/6 328/2/6
f 321/2/6 323/2/6 329/2/6
f 324/2/6 325/2/6 330/2/6
f 330/2/6 325/2/6 331/2/6
f 326/2/6 327/2/6 332/2/6
f 332/2/6 327/2/6 333/2/6
f 328/2/6 322/2/6 334/2/6
f 332/2/6 333/2/6 335/2/6
f 333/2/6 334/2/6 335/2/6
f 330/2/6 331/2/6 335/2/6
f 321/2/6 329/2/6 335/2/6
f 331/2/6 332/2/6 335/2/6
f 329/2/6 330/2/6 335/2/6
f 335/2/6 334/2/6 336/2/6
f 336/2/6 334/2/6 337/2/6
f 337/2/6 334/2/6 338/2/6
f 338/2/6 334/2/6 339/2/6
f 334/2/6 322/2/6 340/2/6
f 339/2/6 334/2/6 340/2/6
f 321/2/6 335/2/6 341/2/6
f 336/2/6 337/2/6 342/2/6
f 342/2/6 337/2/6 343/2/6
f 338/2/6 339/2/6 344/2/6
f 344/2/6 339/2/6 345/2/6
f 340/2/6 322/2/6 346/2/6
f 342/2/6 343/2/6 347/2/6
f 345/2/6 346/2/6 347/2/6
f 344/2/6 345/2/6 347/2/6
f 321/2/6 341/2/6 347/2/6
f 343/2/6 344/2/6 347/2/6
f 341/2/6 342/2/6 347/2/6
f 346/2/6 322/2/6 348/2/6
f 347/2/6 346/2/6 348/2/6
